<?xml version="1.0" encoding="utf-8" ?>
<svg baseProfile="full" height="341" version="1.1" width="1536" xmlns="http://www.w3.org/2000/svg" xmlns:ev="http://www.w3.org/2001/xml-events" xmlns:xlink="http://www.w3.org/1999/xlink"><defs /><path d="M 511.0,282.5 L 510.0,282.5 L 509.0,282.5 L 508.0,282.5 L 507.0,282.5 L 506.0,282.5 L 505.0,282.5 L 504.0,282.5 L 503.0,282.5 L 502.0,282.5 L 501.0,282.5 L 500.0,282.5 L 499.0,282.5 L 498.0,282.5 L 497.0,282.5 L 496.0,282.5 L 495.0,282.5 L 494.0,282.5 L 493.0,282.5 L 492.0,282.5 L 491.0,282.5 L 490.0,282.5 L 489.0,282.5 L 488.0,282.5 L 487.0,282.5 L 486.0,282.5 L 485.0,282.5 L 484.0,282.5 L 483.0,282.5 L 482.5,282.0 L 482.5,281.0 L 482.5,280.0 L 482.5,279.0 L 482.5,278.0 L 482.5,277.0 L 482.5,276.0 L 482.5,275.0 L 482.5,274.0 L 482.5,273.0 L 482.5,272.0 L 482.5,271.0 L 482.5,270.0 L 482.5,269.0 L 482.5,268.0 L 482.5,267.0 L 482.5,266.0 L 482.5,265.0 L 482.5,264.0 L 482.5,263.0 L 482.5,262.0 L 482.5,261.0 L 482.5,260.0 L 482.5,259.0 L 482.5,258.0 L 482.5,257.0 L 482.5,256.0 L 482.5,255.0 L 482.5,254.0 L 482.5,253.0 L 482.5,252.0 L 482.5,251.0 L 482.5,250.0 L 482.5,249.0 L 482.5,248.0 L 482.5,247.0 L 482.5,246.0 L 482.5,245.0 L 482.5,244.0 L 482.5,243.0 L 482.5,242.0 L 482.5,241.0 L 482.5,240.0 L 482.5,239.0 L 482.5,238.0 L 482.5,237.0 L 482.5,236.0 L 482.5,235.0 L 482.5,234.0 L 482.5,233.0 L 482.5,232.0 L 482.5,231.0 L 482.5,230.0 L 482.5,229.0 L 482.5,228.0 L 482.5,227.0 L 482.5,226.0 L 482.5,225.0 L 482.5,224.0 L 482.5,223.0 L 482.5,222.0 L 482.5,221.0 L 482.5,220.0 L 482.5,219.0 L 482.5,218.0 L 482.5,217.0 L 482.5,216.0 L 482.5,215.0 L 482.5,214.0 L 482.5,213.0 L 482.5,212.0 L 482.5,211.0 L 482.5,210.0 L 482.5,209.0 L 482.5,208.0 L 482.5,207.0 L 482.5,206.0 L 482.5,205.0 L 482.5,204.0 L 482.5,203.0 L 482.5,202.0 L 482.5,201.0 L 482.5,200.0 L 482.5,199.0 L 482.5,198.0 L 482.5,197.0 L 482.5,196.0 L 482.5,195.0 L 482.5,194.0 L 482.5,193.0 L 482.5,192.0 L 482.5,191.0 L 482.5,190.0 L 482.5,189.0 L 482.5,188.0 L 482.5,187.0 L 482.5,186.0 L 482.5,185.0 L 482.5,184.0 L 482.5,183.0 L 482.5,182.0 L 482.5,181.0 L 483.0,180.5 L 483.5,180.0 L 484.0,179.5 L 485.0,179.5 L 486.0,179.5 L 487.0,179.5 L 488.0,179.5 L 488.5,180.0 L 489.0,180.5 L 489.5,181.0 L 490.0,181.5 L 491.0,181.5 L 491.5,182.0 L 492.0,182.5 L 492.5,183.0 L 493.0,183.5 L 494.0,183.5 L 494.5,184.0 L 495.0,184.5 L 495.5,185.0 L 496.0,185.5 L 497.0,185.5 L 497.5,186.0 L 498.0,186.5 L 498.5,187.0 L 499.0,187.5 L 500.0,187.5 L 500.5,188.0 L 501.0,188.5 L 501.5,189.0 L 502.0,189.5 L 503.0,189.5 L 503.5,190.0 L 504.0,190.5 L 504.5,191.0 L 505.0,191.5 L 505.5,192.0 L 506.0,192.5 L 507.0,192.5 L 507.5,193.0 L 508.0,193.5 L 508.5,194.0 L 509.0,194.5 L 510.0,194.5 L 510.5,195.0 L 511.0,195.5 L 511.5,196.0 L 512.0,196.5 L 513.0,196.5 L 513.5,197.0 L 514.0,197.5 L 514.5,198.0 L 515.0,198.5 L 516.0,198.5 L 516.5,199.0 L 517.0,199.5 L 517.5,200.0 L 518.0,200.5 L 519.0,200.5 L 519.5,201.0 L 520.0,201.5 L 520.5,202.0 L 521.0,202.5 L 522.0,202.5 L 522.5,203.0 L 523.0,203.5 L 523.5,204.0 L 524.0,204.5 L 525.0,204.5 L 525.5,205.0 L 526.0,205.5 L 526.5,206.0 L 527.0,206.5 L 528.0,206.5 L 528.5,207.0 L 529.0,207.5 L 529.5,208.0 L 530.0,208.5 L 531.0,208.5 L 531.5,209.0 L 532.0,209.5 L 532.5,210.0 L 533.0,210.5 L 533.5,211.0 L 534.0,211.5 L 534.5,212.0 L 535.0,212.5 L 535.5,213.0 L 535.5,214.0 L 535.5,215.0 L 535.5,216.0 L 535.5,217.0 L 535.5,218.0 L 535.5,219.0 L 535.5,220.0 L 535.5,221.0 L 535.5,222.0 L 535.5,223.0 L 535.5,224.0 L 535.5,225.0 L 535.5,226.0 L 535.5,227.0 L 535.5,228.0 L 535.5,229.0 L 535.5,230.0 L 535.5,231.0 L 535.5,232.0 L 535.5,233.0 L 535.5,234.0 L 535.5,235.0 L 536.0,235.5 L 536.5,236.0 L 536.5,237.0 L 536.5,238.0 L 536.5,239.0 L 536.0,239.5 L 535.5,240.0 L 535.5,241.0 L 535.0,241.5 L 534.5,242.0 L 534.0,242.5 L 533.5,242.0 L 533.0,241.5 L 532.0,241.5 L 531.5,241.0 L 531.0,240.5 L 530.5,240.0 L 530.0,239.5 L 529.0,239.5 L 528.5,239.0 L 528.0,238.5 L 527.5,238.0 L 527.0,237.5 L 526.5,237.0 L 526.0,236.5 L 525.0,236.5 L 524.5,236.0 L 524.0,235.5 L 523.5,235.0 L 523.0,234.5 L 522.0,234.5 L 521.5,234.0 L 521.0,233.5 L 520.5,233.0 L 520.0,232.5 L 519.0,232.5 L 518.5,232.0 L 518.0,231.5 L 517.5,231.0 L 517.0,230.5 L 516.0,230.5 L 515.5,230.0 L 515.0,229.5 L 514.5,229.0 L 514.0,228.5 L 513.0,228.5 L 512.5,228.0 L 512.0,227.5 L 511.5,228.0 L 511.5,229.0 L 511.5,230.0 L 511.5,231.0 L 511.5,232.0 L 511.5,233.0 L 511.5,234.0 L 511.5,235.0 L 511.5,236.0 L 511.5,237.0 L 511.5,238.0 L 511.5,239.0 L 511.5,240.0 L 511.5,241.0 L 511.5,242.0 L 511.5,243.0 L 511.5,244.0 L 511.5,245.0 L 511.5,246.0 L 511.5,247.0 L 511.5,248.0 L 511.5,249.0 L 511.5,250.0 L 511.5,251.0 L 511.5,252.0 L 511.5,253.0 L 511.5,254.0 L 511.5,255.0 L 511.5,256.0 L 511.5,257.0 L 511.5,258.0 L 511.5,259.0 L 511.5,260.0 L 511.5,261.0 L 511.5,262.0 L 511.5,263.0 L 511.5,264.0 L 511.5,265.0 L 511.5,266.0 L 511.5,267.0 L 511.5,268.0 L 511.5,269.0 L 511.5,270.0 L 511.5,271.0 L 511.5,272.0 L 511.5,273.0 L 511.5,274.0 L 511.5,275.0 L 511.5,276.0 L 511.5,277.0 L 511.5,278.0 L 511.5,279.0 L 511.5,280.0 L 511.5,281.0 L 511.5,282.0 L 511.0,282.5 Z" fill="black" stroke="none" /><path d="M 590.0,282.5 L 589.0,282.5 L 588.0,282.5 L 587.0,282.5 L 586.0,282.5 L 585.0,282.5 L 584.0,282.5 L 583.0,282.5 L 582.0,282.5 L 581.0,282.5 L 580.0,282.5 L 579.0,282.5 L 578.0,282.5 L 577.0,282.5 L 576.0,282.5 L 575.0,282.5 L 574.0,282.5 L 573.0,282.5 L 572.0,282.5 L 571.0,282.5 L 570.0,282.5 L 569.0,282.5 L 568.0,282.5 L 567.0,282.5 L 566.0,282.5 L 565.0,282.5 L 564.5,282.0 L 564.5,281.0 L 564.5,280.0 L 564.5,279.0 L 564.5,278.0 L 564.5,277.0 L 564.5,276.0 L 564.5,275.0 L 564.5,274.0 L 564.5,273.0 L 564.5,272.0 L 564.5,271.0 L 564.5,270.0 L 564.5,269.0 L 564.5,268.0 L 564.5,267.0 L 564.5,266.0 L 564.5,265.0 L 564.5,264.0 L 564.5,263.0 L 564.5,262.0 L 564.5,261.0 L 564.5,260.0 L 564.5,259.0 L 564.5,258.0 L 564.5,257.0 L 564.5,256.0 L 564.5,255.0 L 564.5,254.0 L 564.5,253.0 L 564.5,252.0 L 564.5,251.0 L 564.5,250.0 L 564.5,249.0 L 564.5,248.0 L 564.5,247.0 L 564.5,246.0 L 564.5,245.0 L 564.5,244.0 L 564.5,243.0 L 564.5,242.0 L 564.5,241.0 L 564.5,240.0 L 564.5,239.0 L 564.5,238.0 L 564.5,237.0 L 564.5,236.0 L 564.5,235.0 L 564.5,234.0 L 564.5,233.0 L 564.5,232.0 L 564.5,231.0 L 564.5,230.0 L 564.5,229.0 L 564.5,228.0 L 564.0,227.5 L 563.0,227.5 L 562.5,228.0 L 562.0,228.5 L 561.0,228.5 L 560.5,229.0 L 560.0,229.5 L 559.5,230.0 L 559.0,230.5 L 558.5,231.0 L 558.0,231.5 L 557.0,231.5 L 556.5,232.0 L 556.0,232.5 L 555.5,233.0 L 555.0,233.5 L 554.0,233.5 L 553.5,234.0 L 553.0,234.5 L 552.5,235.0 L 552.0,235.5 L 551.0,235.5 L 550.5,236.0 L 550.0,236.5 L 549.5,237.0 L 549.0,237.5 L 548.5,238.0 L 548.0,238.5 L 547.0,238.5 L 546.5,239.0 L 546.0,239.5 L 545.5,240.0 L 545.0,240.5 L 544.0,240.5 L 543.5,241.0 L 543.0,241.5 L 542.0,241.5 L 541.0,241.5 L 540.5,241.0 L 540.5,240.0 L 540.5,239.0 L 540.5,238.0 L 540.5,237.0 L 540.5,236.0 L 540.5,235.0 L 540.5,234.0 L 540.5,233.0 L 540.5,232.0 L 540.5,231.0 L 540.5,230.0 L 540.5,229.0 L 540.5,228.0 L 540.5,227.0 L 540.5,226.0 L 540.5,225.0 L 540.5,224.0 L 540.5,223.0 L 540.5,222.0 L 540.5,221.0 L 540.5,220.0 L 540.5,219.0 L 540.5,218.0 L 540.5,217.0 L 540.5,216.0 L 540.5,215.0 L 540.5,214.0 L 540.5,213.0 L 540.5,212.0 L 541.0,211.5 L 541.5,211.0 L 542.0,210.5 L 542.5,210.0 L 543.0,209.5 L 544.0,209.5 L 544.5,209.0 L 545.0,208.5 L 545.5,208.0 L 546.0,207.5 L 547.0,207.5 L 547.5,207.0 L 548.0,206.5 L 548.5,206.0 L 549.0,205.5 L 550.0,205.5 L 550.5,205.0 L 551.0,204.5 L 551.5,204.0 L 552.0,203.5 L 553.0,203.5 L 553.5,203.0 L 554.0,202.5 L 554.5,202.0 L 555.0,201.5 L 556.0,201.5 L 556.5,201.0 L 557.0,200.5 L 557.5,200.0 L 558.0,199.5 L 559.0,199.5 L 559.5,199.0 L 560.0,198.5 L 560.5,198.0 L 561.0,197.5 L 561.5,197.0 L 562.0,196.5 L 563.0,196.5 L 563.5,196.0 L 564.0,195.5 L 564.5,195.0 L 565.0,194.5 L 566.0,194.5 L 566.5,194.0 L 567.0,193.5 L 567.5,193.0 L 568.0,192.5 L 569.0,192.5 L 569.5,192.0 L 570.0,191.5 L 570.5,191.0 L 571.0,190.5 L 571.5,190.0 L 572.0,189.5 L 573.0,189.5 L 573.5,189.0 L 574.0,188.5 L 574.5,188.0 L 575.0,187.5 L 576.0,187.5 L 576.5,187.0 L 577.0,186.5 L 577.5,186.0 L 578.0,185.5 L 579.0,185.5 L 579.5,185.0 L 580.0,184.5 L 580.5,184.0 L 581.0,183.5 L 582.0,183.5 L 582.5,183.0 L 583.0,182.5 L 583.5,182.0 L 584.0,181.5 L 585.0,181.5 L 585.5,181.0 L 586.0,180.5 L 587.0,180.5 L 587.5,180.0 L 588.0,179.5 L 589.0,179.5 L 589.5,180.0 L 590.0,180.5 L 590.5,181.0 L 590.5,182.0 L 590.5,183.0 L 590.5,184.0 L 590.5,185.0 L 590.5,186.0 L 590.5,187.0 L 590.5,188.0 L 590.5,189.0 L 590.5,190.0 L 590.5,191.0 L 590.5,192.0 L 590.5,193.0 L 590.5,194.0 L 590.5,195.0 L 590.5,196.0 L 590.5,197.0 L 590.5,198.0 L 591.0,198.5 L 591.5,199.0 L 591.5,200.0 L 591.5,201.0 L 591.5,202.0 L 591.5,203.0 L 591.5,204.0 L 591.5,205.0 L 591.5,206.0 L 591.5,207.0 L 591.5,208.0 L 591.5,209.0 L 591.5,210.0 L 591.5,211.0 L 591.5,212.0 L 591.5,213.0 L 591.5,214.0 L 591.5,215.0 L 591.5,216.0 L 591.5,217.0 L 591.5,218.0 L 591.5,219.0 L 591.5,220.0 L 591.5,221.0 L 591.5,222.0 L 591.5,223.0 L 591.5,224.0 L 591.5,225.0 L 591.5,226.0 L 591.5,227.0 L 591.5,228.0 L 591.5,229.0 L 591.5,230.0 L 591.5,231.0 L 591.5,232.0 L 591.0,232.5 L 590.5,233.0 L 590.5,234.0 L 590.5,235.0 L 591.0,235.5 L 591.5,236.0 L 591.5,237.0 L 591.5,238.0 L 591.5,239.0 L 591.5,240.0 L 591.5,241.0 L 591.5,242.0 L 591.5,243.0 L 591.5,244.0 L 591.5,245.0 L 591.5,246.0 L 591.5,247.0 L 591.5,248.0 L 591.5,249.0 L 591.5,250.0 L 591.5,251.0 L 591.5,252.0 L 591.5,253.0 L 591.5,254.0 L 591.5,255.0 L 591.5,256.0 L 591.5,257.0 L 591.5,258.0 L 591.5,259.0 L 591.5,260.0 L 591.5,261.0 L 591.5,262.0 L 591.5,263.0 L 591.5,264.0 L 591.5,265.0 L 591.5,266.0 L 591.5,267.0 L 591.5,268.0 L 591.5,269.0 L 591.5,270.0 L 591.5,271.0 L 591.5,272.0 L 591.5,273.0 L 591.5,274.0 L 591.5,275.0 L 591.5,276.0 L 591.5,277.0 L 591.5,278.0 L 591.5,279.0 L 591.0,279.5 L 590.5,280.0 L 590.5,281.0 L 590.5,282.0 L 590.0,282.5 Z" fill="black" stroke="none" /><path d="M 596.0,221.5 L 595.5,221.0 L 595.5,220.0 L 595.5,219.0 L 595.5,218.0 L 595.5,217.0 L 595.5,216.0 L 595.5,215.0 L 595.5,214.0 L 595.5,213.0 L 595.5,212.0 L 595.5,211.0 L 595.5,210.0 L 595.5,209.0 L 595.5,208.0 L 595.5,207.0 L 595.5,206.0 L 595.5,205.0 L 595.5,204.0 L 595.5,203.0 L 595.5,202.0 L 595.5,201.0 L 595.5,200.0 L 595.5,199.0 L 595.5,198.0 L 595.5,197.0 L 595.5,196.0 L 595.5,195.0 L 595.5,194.0 L 595.5,193.0 L 595.5,192.0 L 595.5,191.0 L 595.5,190.0 L 595.5,189.0 L 595.5,188.0 L 595.5,187.0 L 595.5,186.0 L 595.5,185.0 L 595.5,184.0 L 595.5,183.0 L 595.5,182.0 L 595.5,181.0 L 596.0,180.5 L 597.0,180.5 L 598.0,180.5 L 599.0,180.5 L 600.0,180.5 L 601.0,180.5 L 602.0,180.5 L 603.0,180.5 L 604.0,180.5 L 605.0,180.5 L 606.0,180.5 L 607.0,180.5 L 608.0,180.5 L 609.0,180.5 L 610.0,180.5 L 611.0,180.5 L 612.0,180.5 L 613.0,180.5 L 614.0,180.5 L 615.0,180.5 L 616.0,180.5 L 617.0,180.5 L 618.0,180.5 L 619.0,180.5 L 620.0,180.5 L 621.0,180.5 L 622.0,180.5 L 623.0,180.5 L 624.0,180.5 L 625.0,180.5 L 626.0,180.5 L 627.0,180.5 L 628.0,180.5 L 629.0,180.5 L 630.0,180.5 L 631.0,180.5 L 632.0,180.5 L 633.0,180.5 L 634.0,180.5 L 635.0,180.5 L 636.0,180.5 L 636.5,181.0 L 636.5,182.0 L 636.0,182.5 L 635.0,182.5 L 634.5,183.0 L 634.0,183.5 L 633.5,184.0 L 633.0,184.5 L 632.5,185.0 L 632.5,186.0 L 632.0,186.5 L 631.5,187.0 L 631.0,187.5 L 630.5,188.0 L 630.0,188.5 L 629.5,189.0 L 629.0,189.5 L 628.5,190.0 L 628.0,190.5 L 627.5,191.0 L 627.0,191.5 L 626.5,192.0 L 626.0,192.5 L 625.5,193.0 L 625.0,193.5 L 624.5,194.0 L 624.0,194.5 L 623.5,195.0 L 623.0,195.5 L 622.5,196.0 L 622.0,196.5 L 621.5,197.0 L 621.0,197.5 L 620.5,198.0 L 620.0,198.5 L 619.5,199.0 L 619.0,199.5 L 618.0,199.5 L 617.5,200.0 L 617.0,200.5 L 616.5,201.0 L 616.0,201.5 L 615.5,202.0 L 615.0,202.5 L 614.5,203.0 L 614.0,203.5 L 613.5,204.0 L 613.5,205.0 L 613.0,205.5 L 612.5,206.0 L 612.0,206.5 L 611.5,207.0 L 611.0,207.5 L 610.5,208.0 L 610.0,208.5 L 609.5,209.0 L 609.0,209.5 L 608.5,210.0 L 608.0,210.5 L 607.5,211.0 L 607.0,211.5 L 606.5,212.0 L 606.0,212.5 L 605.5,213.0 L 605.0,213.5 L 604.0,213.5 L 603.5,214.0 L 603.0,214.5 L 602.5,215.0 L 602.0,215.5 L 601.5,216.0 L 601.0,216.5 L 600.5,217.0 L 600.0,217.5 L 599.5,218.0 L 599.0,218.5 L 598.5,219.0 L 598.0,219.5 L 597.5,220.0 L 597.0,220.5 L 596.5,221.0 L 596.0,221.5 Z" fill="black" stroke="none" /><path d="M 745.0,265.5 L 744.0,265.5 L 743.0,265.5 L 742.0,265.5 L 741.0,265.5 L 740.0,265.5 L 739.0,265.5 L 738.0,265.5 L 737.0,265.5 L 736.0,265.5 L 735.0,265.5 L 734.5,265.0 L 734.5,264.0 L 734.5,263.0 L 734.5,262.0 L 734.5,261.0 L 734.5,260.0 L 734.5,259.0 L 734.5,258.0 L 734.5,257.0 L 734.5,256.0 L 734.5,255.0 L 734.5,254.0 L 734.5,253.0 L 734.5,252.0 L 734.5,251.0 L 734.5,250.0 L 734.0,249.5 L 733.5,249.0 L 733.5,248.0 L 733.5,247.0 L 734.0,246.5 L 734.5,246.0 L 734.5,245.0 L 734.5,244.0 L 734.5,243.0 L 734.5,242.0 L 734.5,241.0 L 734.5,240.0 L 734.0,239.5 L 733.5,239.0 L 733.5,238.0 L 733.5,237.0 L 734.0,236.5 L 734.5,236.0 L 734.5,235.0 L 734.0,234.5 L 733.5,235.0 L 733.5,236.0 L 733.0,236.5 L 732.5,237.0 L 732.0,237.5 L 731.5,238.0 L 731.5,239.0 L 731.0,239.5 L 730.5,240.0 L 730.0,240.5 L 729.5,241.0 L 729.5,242.0 L 729.0,242.5 L 728.5,243.0 L 728.0,243.5 L 727.5,244.0 L 727.5,245.0 L 727.0,245.5 L 726.5,246.0 L 726.0,246.5 L 725.5,247.0 L 725.5,248.0 L 725.0,248.5 L 724.5,249.0 L 724.5,250.0 L 724.0,250.5 L 723.5,251.0 L 723.0,251.5 L 722.5,252.0 L 722.0,252.5 L 721.5,253.0 L 721.5,254.0 L 721.0,254.5 L 720.5,255.0 L 720.0,255.5 L 719.5,256.0 L 719.5,257.0 L 719.0,257.5 L 718.5,258.0 L 718.0,258.5 L 717.0,258.5 L 716.0,258.5 L 715.0,258.5 L 714.0,258.5 L 713.0,258.5 L 712.0,258.5 L 711.5,258.0 L 711.0,257.5 L 710.5,257.0 L 710.5,256.0 L 710.0,255.5 L 709.5,255.0 L 709.0,254.5 L 708.5,254.0 L 708.5,253.0 L 708.0,252.5 L 707.5,252.0 L 707.5,251.0 L 707.0,250.5 L 706.5,250.0 L 706.0,249.5 L 705.5,249.0 L 705.0,248.5 L 704.5,248.0 L 704.5,247.0 L 704.0,246.5 L 703.5,246.0 L 703.0,245.5 L 702.5,245.0 L 702.5,244.0 L 702.0,243.5 L 701.5,243.0 L 701.5,242.0 L 701.0,241.5 L 700.5,241.0 L 700.0,240.5 L 699.5,240.0 L 699.0,239.5 L 698.5,239.0 L 698.5,238.0 L 698.0,237.5 L 697.5,237.0 L 697.0,236.5 L 696.5,236.0 L 696.5,235.0 L 696.0,234.5 L 695.5,235.0 L 695.5,236.0 L 696.0,236.5 L 696.5,237.0 L 696.5,238.0 L 696.0,238.5 L 695.5,239.0 L 695.5,240.0 L 695.5,241.0 L 695.5,242.0 L 695.5,243.0 L 695.5,244.0 L 695.5,245.0 L 695.5,246.0 L 695.5,247.0 L 695.5,248.0 L 695.5,249.0 L 695.5,250.0 L 695.5,251.0 L 695.5,252.0 L 695.5,253.0 L 695.5,254.0 L 695.5,255.0 L 695.5,256.0 L 695.5,257.0 L 695.5,258.0 L 695.5,259.0 L 695.5,260.0 L 695.5,261.0 L 695.5,262.0 L 695.5,263.0 L 695.5,264.0 L 695.5,265.0 L 695.0,265.5 L 694.0,265.5 L 693.0,265.5 L 692.0,265.5 L 691.0,265.5 L 690.0,265.5 L 689.0,265.5 L 688.0,265.5 L 687.0,265.5 L 686.0,265.5 L 685.0,265.5 L 684.5,265.0 L 684.5,264.0 L 684.5,263.0 L 684.5,262.0 L 684.5,261.0 L 684.5,260.0 L 684.5,259.0 L 684.5,258.0 L 684.5,257.0 L 684.5,256.0 L 684.5,255.0 L 684.5,254.0 L 684.5,253.0 L 684.5,252.0 L 684.5,251.0 L 684.5,250.0 L 684.5,249.0 L 684.5,248.0 L 684.5,247.0 L 684.5,246.0 L 684.5,245.0 L 684.5,244.0 L 684.5,243.0 L 684.5,242.0 L 684.5,241.0 L 684.5,240.0 L 684.5,239.0 L 684.5,238.0 L 684.5,237.0 L 684.5,236.0 L 684.5,235.0 L 684.5,234.0 L 684.5,233.0 L 684.5,232.0 L 684.5,231.0 L 684.5,230.0 L 684.5,229.0 L 684.5,228.0 L 684.5,227.0 L 684.5,226.0 L 684.5,225.0 L 684.5,224.0 L 684.5,223.0 L 684.5,222.0 L 684.5,221.0 L 684.5,220.0 L 684.5,219.0 L 684.5,218.0 L 685.0,217.5 L 685.5,217.0 L 686.0,216.5 L 687.0,216.5 L 688.0,216.5 L 689.0,216.5 L 690.0,216.5 L 691.0,216.5 L 692.0,216.5 L 693.0,216.5 L 694.0,216.5 L 695.0,216.5 L 696.0,216.5 L 696.5,217.0 L 697.0,217.5 L 697.5,218.0 L 698.0,218.5 L 698.5,219.0 L 698.5,220.0 L 699.0,220.5 L 699.5,221.0 L 699.5,222.0 L 700.0,222.5 L 700.5,223.0 L 701.0,223.5 L 701.5,224.0 L 701.5,225.0 L 702.0,225.5 L 702.5,226.0 L 702.5,227.0 L 703.0,227.5 L 703.5,228.0 L 704.0,228.5 L 704.5,229.0 L 705.0,229.5 L 705.5,230.0 L 705.5,231.0 L 706.0,231.5 L 706.5,232.0 L 707.0,232.5 L 707.5,233.0 L 707.5,234.0 L 708.0,234.5 L 708.5,235.0 L 708.5,236.0 L 709.0,236.5 L 709.5,237.0 L 710.0,237.5 L 710.5,238.0 L 710.5,239.0 L 711.0,239.5 L 711.5,240.0 L 712.0,240.5 L 712.5,241.0 L 712.5,242.0 L 713.0,242.5 L 713.5,243.0 L 714.0,243.5 L 714.5,244.0 L 715.0,244.5 L 715.5,244.0 L 716.0,243.5 L 716.5,243.0 L 717.0,242.5 L 717.5,242.0 L 717.5,241.0 L 718.0,240.5 L 718.5,240.0 L 719.0,239.5 L 719.5,239.0 L 719.5,238.0 L 720.0,237.5 L 720.5,237.0 L 721.0,236.5 L 721.5,236.0 L 721.5,235.0 L 722.0,234.5 L 722.5,234.0 L 723.0,233.5 L 723.5,233.0 L 723.5,232.0 L 724.0,231.5 L 724.5,231.0 L 725.0,230.5 L 725.5,230.0 L 725.5,229.0 L 726.0,228.5 L 726.5,228.0 L 726.5,227.0 L 727.0,226.5 L 727.5,226.0 L 728.0,225.5 L 728.5,225.0 L 728.5,224.0 L 729.0,223.5 L 729.5,223.0 L 729.5,222.0 L 730.0,221.5 L 730.5,221.0 L 731.0,220.5 L 731.5,220.0 L 731.5,219.0 L 732.0,218.5 L 732.5,218.0 L 733.0,217.5 L 733.5,217.0 L 734.0,216.5 L 735.0,216.5 L 736.0,216.5 L 737.0,216.5 L 738.0,216.5 L 739.0,216.5 L 740.0,216.5 L 741.0,216.5 L 742.0,216.5 L 743.0,216.5 L 744.0,216.5 L 744.5,217.0 L 745.0,217.5 L 745.5,218.0 L 745.5,219.0 L 745.5,220.0 L 745.5,221.0 L 745.5,222.0 L 745.5,223.0 L 745.5,224.0 L 745.5,225.0 L 745.5,226.0 L 745.5,227.0 L 745.5,228.0 L 745.5,229.0 L 745.5,230.0 L 745.5,231.0 L 745.5,232.0 L 745.5,233.0 L 745.5,234.0 L 745.5,235.0 L 745.5,236.0 L 745.5,237.0 L 745.5,238.0 L 745.5,239.0 L 745.5,240.0 L 745.5,241.0 L 745.5,242.0 L 745.5,243.0 L 745.5,244.0 L 745.5,245.0 L 745.5,246.0 L 745.5,247.0 L 745.5,248.0 L 745.5,249.0 L 745.5,250.0 L 745.5,251.0 L 745.5,252.0 L 745.5,253.0 L 745.5,254.0 L 745.5,255.0 L 745.5,256.0 L 745.5,257.0 L 745.5,258.0 L 745.5,259.0 L 745.5,260.0 L 745.5,261.0 L 745.5,262.0 L 745.5,263.0 L 745.5,264.0 L 745.5,265.0 L 745.0,265.5 Z" fill="black" stroke="none" /><path d="M 807.0,265.5 L 806.0,265.5 L 805.0,265.5 L 804.0,265.5 L 803.0,265.5 L 802.0,265.5 L 801.0,265.5 L 800.0,265.5 L 799.0,265.5 L 798.0,265.5 L 797.0,265.5 L 796.0,265.5 L 795.0,265.5 L 794.5,265.0 L 794.5,264.0 L 794.0,263.5 L 793.5,263.0 L 793.5,262.0 L 793.0,261.5 L 792.5,261.0 L 792.5,260.0 L 792.5,259.0 L 792.0,258.5 L 791.5,258.0 L 791.5,257.0 L 791.0,256.5 L 790.5,256.0 L 790.5,255.0 L 790.0,254.5 L 789.0,254.5 L 788.0,254.5 L 787.0,254.5 L 786.0,254.5 L 785.0,254.5 L 784.0,254.5 L 783.0,254.5 L 782.0,254.5 L 781.0,254.5 L 780.0,254.5 L 779.0,254.5 L 778.0,254.5 L 777.0,254.5 L 776.0,254.5 L 775.0,254.5 L 774.0,254.5 L 773.0,254.5 L 772.0,254.5 L 771.0,254.5 L 770.0,254.5 L 769.0,254.5 L 768.0,254.5 L 767.0,254.5 L 766.5,255.0 L 766.5,256.0 L 766.5,257.0 L 766.0,257.5 L 765.5,258.0 L 765.5,259.0 L 765.0,259.5 L 764.5,260.0 L 764.5,261.0 L 764.0,261.5 L 763.5,262.0 L 763.5,263.0 L 763.0,263.5 L 762.5,264.0 L 762.5,265.0 L 762.0,265.5 L 761.0,265.5 L 760.0,265.5 L 759.0,265.5 L 758.0,265.5 L 757.0,265.5 L 756.0,265.5 L 755.0,265.5 L 754.0,265.5 L 753.0,265.5 L 752.0,265.5 L 751.0,265.5 L 750.5,265.0 L 750.5,264.0 L 750.5,263.0 L 751.0,262.5 L 751.5,262.0 L 751.5,261.0 L 752.0,260.5 L 752.5,260.0 L 752.5,259.0 L 753.0,258.5 L 753.5,258.0 L 753.5,257.0 L 753.5,256.0 L 754.0,255.5 L 754.5,255.0 L 754.5,254.0 L 755.0,253.5 L 755.5,253.0 L 755.5,252.0 L 756.0,251.5 L 756.5,251.0 L 756.5,250.0 L 757.0,249.5 L 757.5,249.0 L 757.5,248.0 L 758.0,247.5 L 758.5,247.0 L 758.5,246.0 L 759.0,245.5 L 759.5,245.0 L 759.5,244.0 L 760.0,243.5 L 760.5,243.0 L 760.5,242.0 L 761.0,241.5 L 761.5,241.0 L 761.5,240.0 L 761.5,239.0 L 762.0,238.5 L 762.5,238.0 L 762.5,237.0 L 763.0,236.5 L 763.5,236.0 L 763.5,235.0 L 764.0,234.5 L 764.5,234.0 L 764.5,233.0 L 765.0,232.5 L 765.5,232.0 L 765.5,231.0 L 765.5,230.0 L 766.0,229.5 L 766.5,229.0 L 767.0,228.5 L 767.5,228.0 L 767.5,227.0 L 768.0,226.5 L 768.5,226.0 L 768.5,225.0 L 769.0,224.5 L 769.5,224.0 L 769.5,223.0 L 769.5,222.0 L 770.0,221.5 L 770.5,221.0 L 770.5,220.0 L 771.0,219.5 L 771.5,219.0 L 771.5,218.0 L 772.0,217.5 L 772.5,217.0 L 773.0,216.5 L 774.0,216.5 L 775.0,216.5 L 776.0,216.5 L 777.0,216.5 L 778.0,216.5 L 779.0,216.5 L 780.0,216.5 L 781.0,216.5 L 782.0,216.5 L 783.0,216.5 L 784.0,216.5 L 784.5,217.0 L 785.0,217.5 L 785.5,218.0 L 785.5,219.0 L 786.0,219.5 L 786.5,220.0 L 786.5,221.0 L 787.0,221.5 L 787.5,222.0 L 787.5,223.0 L 788.0,223.5 L 788.5,224.0 L 788.5,225.0 L 789.0,225.5 L 789.5,226.0 L 789.5,227.0 L 790.0,227.5 L 790.5,228.0 L 790.5,229.0 L 791.0,229.5 L 791.5,230.0 L 791.5,231.0 L 792.0,231.5 L 792.5,232.0 L 792.5,233.0 L 792.5,234.0 L 793.0,234.5 L 793.5,235.0 L 793.5,236.0 L 794.0,236.5 L 794.5,237.0 L 794.5,238.0 L 795.0,238.5 L 795.5,239.0 L 795.5,240.0 L 796.0,240.5 L 796.5,241.0 L 796.5,242.0 L 797.0,242.5 L 797.5,243.0 L 797.5,244.0 L 798.0,244.5 L 798.5,245.0 L 798.5,246.0 L 798.5,247.0 L 799.0,247.5 L 799.5,248.0 L 799.5,249.0 L 800.0,249.5 L 800.5,250.0 L 800.5,251.0 L 801.0,251.5 L 801.5,252.0 L 801.5,253.0 L 802.0,253.5 L 802.5,254.0 L 802.5,255.0 L 803.0,255.5 L 803.5,256.0 L 803.5,257.0 L 804.0,257.5 L 804.5,258.0 L 804.5,259.0 L 805.0,259.5 L 805.5,260.0 L 805.5,261.0 L 806.0,261.5 L 806.5,262.0 L 806.5,263.0 L 807.0,263.5 L 807.5,264.0 L 807.5,265.0 L 807.0,265.5 Z" fill="black" stroke="none" /><path d="M 862.0,265.5 L 861.0,265.5 L 860.0,265.5 L 859.0,265.5 L 858.0,265.5 L 857.0,265.5 L 856.0,265.5 L 855.0,265.5 L 854.0,265.5 L 853.0,265.5 L 852.0,265.5 L 851.0,265.5 L 850.0,265.5 L 849.0,265.5 L 848.0,265.5 L 847.5,265.0 L 847.5,264.0 L 847.0,263.5 L 846.5,263.0 L 846.0,262.5 L 845.5,262.0 L 845.0,261.5 L 844.5,261.0 L 844.0,260.5 L 843.5,260.0 L 843.5,259.0 L 843.0,258.5 L 842.5,258.0 L 842.0,257.5 L 841.5,257.0 L 841.0,256.5 L 840.5,256.0 L 840.0,255.5 L 839.5,255.0 L 839.0,254.5 L 838.5,254.0 L 838.0,253.5 L 837.5,253.0 L 837.5,252.0 L 837.0,251.5 L 836.5,251.0 L 836.0,250.5 L 835.5,250.0 L 835.0,249.5 L 834.5,249.0 L 834.0,248.5 L 833.5,248.0 L 833.0,247.5 L 832.5,247.0 L 832.0,246.5 L 831.5,246.0 L 831.5,245.0 L 831.0,244.5 L 830.5,245.0 L 830.0,245.5 L 829.5,246.0 L 829.0,246.5 L 828.0,246.5 L 827.5,247.0 L 827.0,247.5 L 826.5,248.0 L 826.0,248.5 L 825.5,249.0 L 825.0,249.5 L 824.5,250.0 L 824.0,250.5 L 823.5,251.0 L 823.5,252.0 L 823.5,253.0 L 823.5,254.0 L 823.5,255.0 L 823.5,256.0 L 823.5,257.0 L 823.5,258.0 L 823.5,259.0 L 823.5,260.0 L 823.5,261.0 L 823.5,262.0 L 823.5,263.0 L 823.5,264.0 L 823.5,265.0 L 823.0,265.5 L 822.0,265.5 L 821.0,265.5 L 820.0,265.5 L 819.0,265.5 L 818.0,265.5 L 817.0,265.5 L 816.0,265.5 L 815.0,265.5 L 814.0,265.5 L 813.0,265.5 L 812.0,265.5 L 811.5,265.0 L 811.5,264.0 L 811.5,263.0 L 811.5,262.0 L 811.5,261.0 L 811.5,260.0 L 811.5,259.0 L 811.5,258.0 L 811.5,257.0 L 811.5,256.0 L 811.5,255.0 L 811.5,254.0 L 811.5,253.0 L 811.5,252.0 L 811.5,251.0 L 811.5,250.0 L 811.5,249.0 L 811.5,248.0 L 811.5,247.0 L 811.5,246.0 L 811.5,245.0 L 811.5,244.0 L 811.5,243.0 L 811.5,242.0 L 811.5,241.0 L 811.5,240.0 L 811.5,239.0 L 811.5,238.0 L 811.5,237.0 L 811.5,236.0 L 811.5,235.0 L 811.5,234.0 L 811.5,233.0 L 811.5,232.0 L 811.5,231.0 L 811.5,230.0 L 811.5,229.0 L 811.5,228.0 L 811.5,227.0 L 811.5,226.0 L 811.5,225.0 L 811.5,224.0 L 811.5,223.0 L 811.5,222.0 L 811.5,221.0 L 811.5,220.0 L 811.5,219.0 L 811.5,218.0 L 811.5,217.0 L 812.0,216.5 L 813.0,216.5 L 814.0,216.5 L 815.0,216.5 L 816.0,216.5 L 817.0,216.5 L 818.0,216.5 L 819.0,216.5 L 820.0,216.5 L 821.0,216.5 L 822.0,216.5 L 822.5,217.0 L 823.0,217.5 L 823.5,218.0 L 823.5,219.0 L 823.5,220.0 L 823.5,221.0 L 823.5,222.0 L 823.5,223.0 L 823.5,224.0 L 823.5,225.0 L 823.5,226.0 L 823.5,227.0 L 823.5,228.0 L 823.5,229.0 L 823.5,230.0 L 823.5,231.0 L 823.5,232.0 L 823.5,233.0 L 823.5,234.0 L 823.5,235.0 L 823.5,236.0 L 823.5,237.0 L 824.0,237.5 L 824.5,237.0 L 825.0,236.5 L 825.5,236.0 L 826.0,235.5 L 826.5,235.0 L 827.0,234.5 L 827.5,234.0 L 828.0,233.5 L 828.5,233.0 L 829.0,232.5 L 829.5,232.0 L 830.0,231.5 L 830.5,231.0 L 831.0,230.5 L 831.5,230.0 L 832.0,229.5 L 833.0,229.5 L 833.5,229.0 L 834.0,228.5 L 834.5,228.0 L 835.0,227.5 L 835.5,227.0 L 836.0,226.5 L 836.5,226.0 L 837.0,225.5 L 837.5,225.0 L 838.0,224.5 L 838.5,224.0 L 839.0,223.5 L 839.5,223.0 L 840.0,222.5 L 840.5,222.0 L 841.0,221.5 L 841.5,221.0 L 842.0,220.5 L 842.5,220.0 L 843.0,219.5 L 843.5,219.0 L 844.0,218.5 L 844.5,218.0 L 845.0,217.5 L 845.5,217.0 L 846.0,216.5 L 847.0,216.5 L 848.0,216.5 L 849.0,216.5 L 850.0,216.5 L 851.0,216.5 L 852.0,216.5 L 853.0,216.5 L 854.0,216.5 L 855.0,216.5 L 856.0,216.5 L 857.0,216.5 L 858.0,216.5 L 859.0,216.5 L 860.0,216.5 L 860.5,217.0 L 860.5,218.0 L 860.0,218.5 L 859.5,219.0 L 859.0,219.5 L 858.5,220.0 L 858.0,220.5 L 857.0,220.5 L 856.5,221.0 L 856.0,221.5 L 855.5,222.0 L 855.0,222.5 L 854.5,223.0 L 854.0,223.5 L 853.5,224.0 L 853.0,224.5 L 852.5,225.0 L 852.0,225.5 L 851.5,226.0 L 851.0,226.5 L 850.5,227.0 L 850.0,227.5 L 849.5,228.0 L 849.0,228.5 L 848.5,229.0 L 848.0,229.5 L 847.5,230.0 L 847.0,230.5 L 846.5,231.0 L 846.0,231.5 L 845.0,231.5 L 844.5,232.0 L 844.0,232.5 L 843.5,233.0 L 843.0,233.5 L 842.5,234.0 L 842.0,234.5 L 841.5,235.0 L 841.0,235.5 L 840.5,236.0 L 840.0,236.5 L 839.5,237.0 L 839.5,238.0 L 840.0,238.5 L 840.5,239.0 L 841.0,239.5 L 841.5,240.0 L 842.0,240.5 L 842.5,241.0 L 843.0,241.5 L 843.5,242.0 L 843.5,243.0 L 844.0,243.5 L 844.5,244.0 L 845.0,244.5 L 845.5,245.0 L 846.0,245.5 L 846.5,246.0 L 847.0,246.5 L 847.5,247.0 L 848.0,247.5 L 848.5,248.0 L 849.0,248.5 L 849.5,249.0 L 850.0,249.5 L 850.5,250.0 L 850.5,251.0 L 851.0,251.5 L 851.5,252.0 L 852.0,252.5 L 852.5,253.0 L 853.0,253.5 L 853.5,254.0 L 854.0,254.5 L 854.5,255.0 L 855.0,255.5 L 855.5,256.0 L 855.5,257.0 L 856.0,257.5 L 856.5,258.0 L 857.0,258.5 L 857.5,259.0 L 858.0,259.5 L 858.5,260.0 L 859.0,260.5 L 859.5,261.0 L 860.0,261.5 L 860.5,262.0 L 861.0,262.5 L 861.5,263.0 L 862.0,263.5 L 862.5,264.0 L 862.5,265.0 L 862.0,265.5 Z" fill="black" stroke="none" /><path d="M 909.0,266.5 L 908.0,266.5 L 907.0,266.5 L 906.0,266.5 L 905.0,266.5 L 904.0,266.5 L 903.0,266.5 L 902.0,266.5 L 901.0,266.5 L 900.5,266.0 L 900.0,265.5 L 899.0,265.5 L 898.0,265.5 L 897.0,265.5 L 896.0,265.5 L 895.0,265.5 L 894.5,265.0 L 894.0,264.5 L 893.0,264.5 L 892.0,264.5 L 891.5,264.0 L 891.0,263.5 L 890.0,263.5 L 889.5,263.0 L 889.0,262.5 L 888.5,262.0 L 888.0,261.5 L 887.5,261.0 L 887.0,260.5 L 886.0,260.5 L 885.5,260.0 L 885.5,259.0 L 885.0,258.5 L 884.5,258.0 L 884.0,257.5 L 883.5,257.0 L 883.5,256.0 L 883.5,255.0 L 883.0,254.5 L 882.5,254.0 L 882.5,253.0 L 882.5,252.0 L 882.5,251.0 L 883.0,250.5 L 884.0,250.5 L 885.0,250.5 L 886.0,250.5 L 887.0,250.5 L 888.0,250.5 L 889.0,250.5 L 889.5,251.0 L 889.5,252.0 L 889.5,253.0 L 889.5,254.0 L 890.0,254.5 L 890.5,255.0 L 890.5,256.0 L 891.0,256.5 L 891.5,257.0 L 892.0,257.5 L 892.5,258.0 L 893.0,258.5 L 894.0,258.5 L 894.5,259.0 L 895.0,259.5 L 896.0,259.5 L 897.0,259.5 L 897.5,260.0 L 898.0,260.5 L 899.0,260.5 L 900.0,260.5 L 901.0,260.5 L 902.0,260.5 L 903.0,260.5 L 904.0,260.5 L 905.0,260.5 L 906.0,260.5 L 907.0,260.5 L 908.0,260.5 L 909.0,260.5 L 910.0,260.5 L 911.0,260.5 L 912.0,260.5 L 912.5,260.0 L 913.0,259.5 L 914.0,259.5 L 915.0,259.5 L 915.5,259.0 L 916.0,258.5 L 917.0,258.5 L 917.5,258.0 L 918.0,257.5 L 918.5,257.0 L 919.0,256.5 L 919.5,256.0 L 919.5,255.0 L 920.0,254.5 L 920.5,254.0 L 920.5,253.0 L 920.5,252.0 L 920.5,251.0 L 920.0,250.5 L 919.5,250.0 L 919.5,249.0 L 919.0,248.5 L 918.5,248.0 L 918.0,247.5 L 917.5,247.0 L 917.0,246.5 L 916.0,246.5 L 915.5,246.0 L 915.0,245.5 L 914.0,245.5 L 913.0,245.5 L 912.5,245.0 L 912.0,244.5 L 911.0,244.5 L 910.0,244.5 L 909.0,244.5 L 908.0,244.5 L 907.5,244.0 L 907.0,243.5 L 906.0,243.5 L 905.0,243.5 L 904.0,243.5 L 903.0,243.5 L 902.0,243.5 L 901.0,243.5 L 900.5,243.0 L 900.0,242.5 L 899.0,242.5 L 898.0,242.5 L 897.0,242.5 L 896.5,242.0 L 896.0,241.5 L 895.0,241.5 L 894.0,241.5 L 893.0,241.5 L 892.5,241.0 L 892.0,240.5 L 891.0,240.5 L 890.5,240.0 L 890.0,239.5 L 889.0,239.5 L 888.5,239.0 L 888.0,238.5 L 887.5,238.0 L 887.0,237.5 L 886.5,237.0 L 886.0,236.5 L 885.5,236.0 L 885.5,235.0 L 885.0,234.5 L 884.5,234.0 L 884.5,233.0 L 884.5,232.0 L 884.0,231.5 L 883.5,231.0 L 883.5,230.0 L 883.5,229.0 L 884.0,228.5 L 884.5,228.0 L 884.5,227.0 L 884.5,226.0 L 884.5,225.0 L 885.0,224.5 L 885.5,224.0 L 886.0,223.5 L 886.5,223.0 L 887.0,222.5 L 887.5,222.0 L 888.0,221.5 L 888.5,221.0 L 889.0,220.5 L 889.5,220.0 L 890.0,219.5 L 891.0,219.5 L 891.5,219.0 L 892.0,218.5 L 893.0,218.5 L 893.5,218.0 L 894.0,217.5 L 895.0,217.5 L 896.0,217.5 L 897.0,217.5 L 897.5,217.0 L 898.0,216.5 L 899.0,216.5 L 900.0,216.5 L 901.0,216.5 L 902.0,216.5 L 903.0,216.5 L 904.0,216.5 L 905.0,216.5 L 906.0,216.5 L 907.0,216.5 L 908.0,216.5 L 909.0,216.5 L 910.0,216.5 L 911.0,216.5 L 912.0,216.5 L 912.5,217.0 L 913.0,217.5 L 914.0,217.5 L 915.0,217.5 L 915.5,218.0 L 916.0,218.5 L 917.0,218.5 L 918.0,218.5 L 918.5,219.0 L 919.0,219.5 L 919.5,220.0 L 920.0,220.5 L 921.0,220.5 L 921.5,221.0 L 922.0,221.5 L 922.5,222.0 L 923.0,222.5 L 923.5,223.0 L 924.0,223.5 L 924.5,224.0 L 924.5,225.0 L 925.0,225.5 L 925.5,226.0 L 925.5,227.0 L 925.5,228.0 L 925.5,229.0 L 925.5,230.0 L 925.0,230.5 L 924.0,230.5 L 923.0,230.5 L 922.0,230.5 L 921.0,230.5 L 920.0,230.5 L 919.0,230.5 L 918.5,230.0 L 918.5,229.0 L 918.5,228.0 L 918.0,227.5 L 917.5,227.0 L 917.5,226.0 L 917.0,225.5 L 916.5,225.0 L 916.0,224.5 L 915.5,224.0 L 915.0,223.5 L 914.0,223.5 L 913.0,223.5 L 912.5,223.0 L 912.0,222.5 L 911.0,222.5 L 910.0,222.5 L 909.0,222.5 L 908.5,222.0 L 908.0,221.5 L 907.0,221.5 L 906.0,221.5 L 905.0,221.5 L 904.0,221.5 L 903.0,221.5 L 902.5,222.0 L 902.0,222.5 L 901.0,222.5 L 900.0,222.5 L 899.0,222.5 L 898.0,222.5 L 897.0,222.5 L 896.5,223.0 L 896.0,223.5 L 895.0,223.5 L 894.5,224.0 L 894.0,224.5 L 893.0,224.5 L 892.5,225.0 L 892.5,226.0 L 892.0,226.5 L 891.5,227.0 L 891.5,228.0 L 891.0,228.5 L 890.5,229.0 L 890.5,230.0 L 890.5,231.0 L 891.0,231.5 L 891.5,232.0 L 891.5,233.0 L 892.0,233.5 L 892.5,234.0 L 893.0,234.5 L 894.0,234.5 L 894.5,235.0 L 895.0,235.5 L 896.0,235.5 L 896.5,236.0 L 897.0,236.5 L 898.0,236.5 L 899.0,236.5 L 900.0,236.5 L 900.5,237.0 L 901.0,237.5 L 902.0,237.5 L 903.0,237.5 L 904.0,237.5 L 905.0,237.5 L 906.0,237.5 L 906.5,238.0 L 907.0,238.5 L 908.0,238.5 L 909.0,238.5 L 910.0,238.5 L 911.0,238.5 L 912.0,238.5 L 912.5,239.0 L 913.0,239.5 L 914.0,239.5 L 915.0,239.5 L 916.0,239.5 L 916.5,240.0 L 917.0,240.5 L 918.0,240.5 L 919.0,240.5 L 919.5,241.0 L 920.0,241.5 L 921.0,241.5 L 921.5,242.0 L 922.0,242.5 L 922.5,243.0 L 923.0,243.5 L 924.0,243.5 L 924.5,244.0 L 925.0,244.5 L 925.5,245.0 L 925.5,246.0 L 926.0,246.5 L 926.5,247.0 L 926.5,248.0 L 927.0,248.5 L 927.5,249.0 L 927.5,250.0 L 927.5,251.0 L 927.5,252.0 L 927.5,253.0 L 927.5,254.0 L 927.0,254.5 L 926.5,255.0 L 926.5,256.0 L 926.5,257.0 L 926.0,257.5 L 925.5,258.0 L 925.5,259.0 L 925.0,259.5 L 924.5,260.0 L 924.0,260.5 L 923.5,261.0 L 923.0,261.5 L 922.5,262.0 L 922.0,262.5 L 921.0,262.5 L 920.5,263.0 L 920.0,263.5 L 919.0,263.5 L 918.5,264.0 L 918.0,264.5 L 917.0,264.5 L 916.0,264.5 L 915.5,265.0 L 915.0,265.5 L 914.0,265.5 L 913.0,265.5 L 912.0,265.5 L 911.0,265.5 L 910.0,265.5 L 909.5,266.0 L 909.0,266.5 Z" fill="black" stroke="none" /><path d="M 1023.0,266.5 L 1022.0,266.5 L 1021.0,266.5 L 1020.0,266.5 L 1019.0,266.5 L 1018.0,266.5 L 1017.0,266.5 L 1016.5,266.0 L 1016.0,265.5 L 1015.0,265.5 L 1014.0,265.5 L 1013.0,265.5 L 1012.5,265.0 L 1012.0,264.5 L 1011.0,264.5 L 1010.5,264.0 L 1010.0,263.5 L 1009.5,263.0 L 1009.0,262.5 L 1008.0,262.5 L 1007.5,262.0 L 1007.0,261.5 L 1006.5,261.0 L 1006.0,260.5 L 1005.5,260.0 L 1005.5,259.0 L 1005.0,258.5 L 1004.5,258.0 L 1004.0,257.5 L 1003.5,257.0 L 1003.5,256.0 L 1003.5,255.0 L 1003.0,254.5 L 1002.5,254.0 L 1002.5,253.0 L 1002.5,252.0 L 1002.5,251.0 L 1002.5,250.0 L 1002.5,249.0 L 1002.5,248.0 L 1002.5,247.0 L 1002.5,246.0 L 1002.5,245.0 L 1003.0,244.5 L 1003.5,244.0 L 1003.5,243.0 L 1003.5,242.0 L 1004.0,241.5 L 1004.5,241.0 L 1004.5,240.0 L 1005.0,239.5 L 1005.5,239.0 L 1006.0,238.5 L 1006.5,238.0 L 1007.0,237.5 L 1007.5,237.0 L 1008.0,236.5 L 1008.5,236.0 L 1009.0,235.5 L 1010.0,235.5 L 1010.5,235.0 L 1011.0,234.5 L 1012.0,234.5 L 1012.5,234.0 L 1013.0,233.5 L 1014.0,233.5 L 1015.0,233.5 L 1015.5,233.0 L 1016.0,232.5 L 1017.0,232.5 L 1018.0,232.5 L 1019.0,232.5 L 1020.0,232.5 L 1021.0,232.5 L 1022.0,232.5 L 1023.0,232.5 L 1024.0,232.5 L 1025.0,232.5 L 1026.0,232.5 L 1026.5,233.0 L 1027.0,233.5 L 1028.0,233.5 L 1028.5,234.0 L 1029.0,234.5 L 1030.0,234.5 L 1030.5,235.0 L 1031.0,235.5 L 1032.0,235.5 L 1032.5,236.0 L 1033.0,236.5 L 1033.5,236.0 L 1033.5,235.0 L 1033.5,234.0 L 1033.5,233.0 L 1033.5,232.0 L 1033.5,231.0 L 1033.5,230.0 L 1033.5,229.0 L 1033.5,228.0 L 1033.5,227.0 L 1033.5,226.0 L 1033.5,225.0 L 1033.5,224.0 L 1033.5,223.0 L 1033.5,222.0 L 1033.5,221.0 L 1033.5,220.0 L 1033.5,219.0 L 1033.5,218.0 L 1034.0,217.5 L 1035.0,217.5 L 1036.0,217.5 L 1037.0,217.5 L 1038.0,217.5 L 1039.0,217.5 L 1039.5,218.0 L 1039.5,219.0 L 1039.5,220.0 L 1039.5,221.0 L 1039.5,222.0 L 1039.5,223.0 L 1039.5,224.0 L 1039.5,225.0 L 1039.5,226.0 L 1039.5,227.0 L 1039.5,228.0 L 1039.5,229.0 L 1039.5,230.0 L 1039.5,231.0 L 1039.5,232.0 L 1039.5,233.0 L 1039.5,234.0 L 1039.5,235.0 L 1039.5,236.0 L 1039.5,237.0 L 1039.5,238.0 L 1039.5,239.0 L 1039.5,240.0 L 1039.5,241.0 L 1039.5,242.0 L 1039.5,243.0 L 1039.5,244.0 L 1039.5,245.0 L 1039.5,246.0 L 1039.5,247.0 L 1039.5,248.0 L 1039.5,249.0 L 1039.5,250.0 L 1039.5,251.0 L 1039.5,252.0 L 1039.5,253.0 L 1039.5,254.0 L 1039.5,255.0 L 1039.5,256.0 L 1039.5,257.0 L 1039.5,258.0 L 1039.5,259.0 L 1039.5,260.0 L 1039.5,261.0 L 1039.5,262.0 L 1039.5,263.0 L 1039.5,264.0 L 1039.5,265.0 L 1039.0,265.5 L 1038.0,265.5 L 1037.0,265.5 L 1036.0,265.5 L 1035.0,265.5 L 1034.0,265.5 L 1033.5,265.0 L 1033.5,264.0 L 1033.5,263.0 L 1033.5,262.0 L 1033.0,261.5 L 1032.5,262.0 L 1032.0,262.5 L 1031.5,263.0 L 1031.0,263.5 L 1030.5,264.0 L 1030.0,264.5 L 1029.0,264.5 L 1028.0,264.5 L 1027.5,265.0 L 1027.0,265.5 L 1026.0,265.5 L 1025.0,265.5 L 1024.0,265.5 L 1023.5,266.0 L 1023.0,266.5 Z" fill="black" stroke="none" /><path d="M 1055.0,226.5 L 1054.0,226.5 L 1053.0,226.5 L 1052.0,226.5 L 1051.0,226.5 L 1050.0,226.5 L 1049.0,226.5 L 1048.5,226.0 L 1048.5,225.0 L 1048.5,224.0 L 1048.5,223.0 L 1048.5,222.0 L 1048.5,221.0 L 1049.0,220.5 L 1050.0,220.5 L 1051.0,220.5 L 1052.0,220.5 L 1053.0,220.5 L 1054.0,220.5 L 1055.0,220.5 L 1055.5,221.0 L 1055.5,222.0 L 1055.5,223.0 L 1055.5,224.0 L 1056.0,224.5 L 1056.5,225.0 L 1056.0,225.5 L 1055.5,226.0 L 1055.0,226.5 Z" fill="black" stroke="none" /><path d="M 950.0,266.5 L 949.0,266.5 L 948.0,266.5 L 947.0,266.5 L 946.0,266.5 L 945.5,266.0 L 945.0,265.5 L 944.0,265.5 L 943.0,265.5 L 942.0,265.5 L 941.5,265.0 L 941.0,264.5 L 940.5,264.0 L 940.0,263.5 L 939.5,263.0 L 939.0,262.5 L 938.5,262.0 L 938.0,261.5 L 937.5,261.0 L 937.5,260.0 L 937.5,259.0 L 937.0,258.5 L 936.5,258.0 L 936.5,257.0 L 936.5,256.0 L 936.5,255.0 L 936.5,254.0 L 936.5,253.0 L 936.5,252.0 L 936.5,251.0 L 936.5,250.0 L 936.5,249.0 L 936.5,248.0 L 936.5,247.0 L 936.5,246.0 L 936.5,245.0 L 936.5,244.0 L 936.5,243.0 L 936.5,242.0 L 936.5,241.0 L 936.5,240.0 L 936.5,239.0 L 936.0,238.5 L 935.0,238.5 L 934.0,238.5 L 933.0,238.5 L 932.0,238.5 L 931.0,238.5 L 930.0,238.5 L 929.5,238.0 L 929.5,237.0 L 929.5,236.0 L 929.5,235.0 L 929.5,234.0 L 930.0,233.5 L 931.0,233.5 L 931.5,233.0 L 932.0,232.5 L 933.0,232.5 L 934.0,232.5 L 935.0,232.5 L 936.0,232.5 L 936.5,232.0 L 936.5,231.0 L 936.5,230.0 L 936.5,229.0 L 936.5,228.0 L 936.5,227.0 L 936.5,226.0 L 936.5,225.0 L 936.5,224.0 L 937.0,223.5 L 938.0,223.5 L 939.0,223.5 L 940.0,223.5 L 941.0,223.5 L 942.0,223.5 L 943.0,223.5 L 943.5,224.0 L 943.5,225.0 L 943.5,226.0 L 943.5,227.0 L 943.5,228.0 L 943.5,229.0 L 943.5,230.0 L 943.5,231.0 L 943.5,232.0 L 943.5,233.0 L 944.0,233.5 L 944.5,233.0 L 945.0,232.5 L 946.0,232.5 L 947.0,232.5 L 948.0,232.5 L 949.0,232.5 L 950.0,232.5 L 950.5,233.0 L 951.0,233.5 L 952.0,233.5 L 953.0,233.5 L 954.0,233.5 L 954.5,234.0 L 954.5,235.0 L 954.5,236.0 L 955.0,236.5 L 955.5,237.0 L 955.0,237.5 L 954.5,238.0 L 954.0,238.5 L 953.0,238.5 L 952.0,238.5 L 951.0,238.5 L 950.0,238.5 L 949.0,238.5 L 948.0,238.5 L 947.0,238.5 L 946.0,238.5 L 945.0,238.5 L 944.0,238.5 L 943.5,239.0 L 943.5,240.0 L 943.5,241.0 L 943.5,242.0 L 943.5,243.0 L 943.5,244.0 L 943.5,245.0 L 943.5,246.0 L 943.5,247.0 L 943.5,248.0 L 943.5,249.0 L 943.5,250.0 L 943.5,251.0 L 943.5,252.0 L 943.5,253.0 L 943.5,254.0 L 943.5,255.0 L 943.5,256.0 L 943.5,257.0 L 943.5,258.0 L 944.0,258.5 L 944.5,259.0 L 945.0,259.5 L 945.5,260.0 L 946.0,260.5 L 947.0,260.5 L 948.0,260.5 L 949.0,260.5 L 950.0,260.5 L 951.0,260.5 L 952.0,260.5 L 953.0,260.5 L 954.0,260.5 L 955.0,260.5 L 955.5,261.0 L 955.5,262.0 L 955.5,263.0 L 955.5,264.0 L 955.5,265.0 L 955.0,265.5 L 954.0,265.5 L 953.0,265.5 L 952.0,265.5 L 951.0,265.5 L 950.5,266.0 L 950.0,266.5 Z" fill="black" stroke="none" /><path d="M 786.5,245.0 L 786.0,244.5 L 785.5,244.0 L 785.5,243.0 L 785.0,242.5 L 784.5,242.0 L 784.5,241.0 L 784.0,240.5 L 783.5,240.0 L 783.5,239.0 L 783.0,238.5 L 782.5,238.0 L 782.5,237.0 L 782.0,236.5 L 781.5,236.0 L 781.5,235.0 L 781.5,234.0 L 781.0,233.5 L 780.5,233.0 L 780.0,232.5 L 779.5,232.0 L 779.5,231.0 L 779.0,230.5 L 778.5,230.0 L 778.0,229.5 L 777.5,230.0 L 777.5,231.0 L 777.0,231.5 L 776.5,232.0 L 776.5,233.0 L 776.0,233.5 L 775.5,234.0 L 775.5,235.0 L 775.5,236.0 L 775.0,236.5 L 774.5,237.0 L 774.5,238.0 L 774.0,238.5 L 773.5,239.0 L 773.5,240.0 L 773.0,240.5 L 772.5,241.0 L 772.5,242.0 L 772.0,242.5 L 771.5,243.0 L 771.5,244.0 L 771.5,245.0 L 772.0,245.5 L 773.0,245.5 L 774.0,245.5 L 775.0,245.5 L 776.0,245.5 L 777.0,245.5 L 778.0,245.5 L 779.0,245.5 L 780.0,245.5 L 781.0,245.5 L 782.0,245.5 L 783.0,245.5 L 784.0,245.5 L 785.0,245.5 L 786.0,245.5 L 786.5,245.0 Z" fill="black" stroke="none" /><path d="M 1055.0,265.5 L 1054.0,265.5 L 1053.0,265.5 L 1052.0,265.5 L 1051.0,265.5 L 1050.0,265.5 L 1049.5,265.0 L 1049.5,264.0 L 1049.5,263.0 L 1049.5,262.0 L 1049.5,261.0 L 1049.5,260.0 L 1049.5,259.0 L 1049.5,258.0 L 1049.5,257.0 L 1049.5,256.0 L 1049.5,255.0 L 1049.5,254.0 L 1049.5,253.0 L 1049.5,252.0 L 1049.5,251.0 L 1049.5,250.0 L 1049.5,249.0 L 1049.5,248.0 L 1049.5,247.0 L 1049.5,246.0 L 1049.5,245.0 L 1049.5,244.0 L 1049.5,243.0 L 1049.5,242.0 L 1049.5,241.0 L 1049.5,240.0 L 1049.5,239.0 L 1049.5,238.0 L 1049.5,237.0 L 1049.5,236.0 L 1049.5,235.0 L 1049.5,234.0 L 1050.0,233.5 L 1050.5,233.0 L 1051.0,232.5 L 1052.0,232.5 L 1053.0,232.5 L 1054.0,232.5 L 1054.5,233.0 L 1055.0,233.5 L 1055.5,234.0 L 1055.5,235.0 L 1055.5,236.0 L 1055.5,237.0 L 1055.5,238.0 L 1055.5,239.0 L 1055.5,240.0 L 1055.5,241.0 L 1055.5,242.0 L 1055.5,243.0 L 1055.5,244.0 L 1055.5,245.0 L 1055.5,246.0 L 1055.5,247.0 L 1055.5,248.0 L 1055.5,249.0 L 1055.5,250.0 L 1055.5,251.0 L 1055.5,252.0 L 1055.5,253.0 L 1055.5,254.0 L 1055.5,255.0 L 1055.5,256.0 L 1055.5,257.0 L 1055.5,258.0 L 1055.5,259.0 L 1055.5,260.0 L 1055.5,261.0 L 1055.5,262.0 L 1055.5,263.0 L 1055.5,264.0 L 1055.5,265.0 L 1055.0,265.5 Z" fill="black" stroke="none" /><path d="M 1085.0,266.5 L 1084.0,266.5 L 1083.0,266.5 L 1082.0,266.5 L 1081.0,266.5 L 1080.0,266.5 L 1079.0,266.5 L 1078.5,266.0 L 1078.0,265.5 L 1077.0,265.5 L 1076.0,265.5 L 1075.0,265.5 L 1074.5,265.0 L 1074.0,264.5 L 1073.0,264.5 L 1072.0,264.5 L 1071.5,264.0 L 1071.0,263.5 L 1070.5,263.0 L 1070.0,262.5 L 1069.0,262.5 L 1068.5,262.0 L 1068.0,261.5 L 1067.5,261.0 L 1067.0,260.5 L 1066.5,260.0 L 1066.0,259.5 L 1065.5,259.0 L 1065.5,258.0 L 1065.0,257.5 L 1064.5,257.0 L 1064.5,256.0 L 1064.0,255.5 L 1063.5,255.0 L 1063.5,254.0 L 1063.5,253.0 L 1063.5,252.0 L 1063.5,251.0 L 1063.0,250.5 L 1062.5,250.0 L 1062.5,249.0 L 1062.5,248.0 L 1063.0,247.5 L 1063.5,247.0 L 1063.5,246.0 L 1063.5,245.0 L 1063.5,244.0 L 1063.5,243.0 L 1064.0,242.5 L 1064.5,242.0 L 1064.5,241.0 L 1065.0,240.5 L 1065.5,240.0 L 1066.0,239.5 L 1066.5,239.0 L 1067.0,238.5 L 1067.5,238.0 L 1068.0,237.5 L 1068.5,237.0 L 1069.0,236.5 L 1069.5,236.0 L 1070.0,235.5 L 1071.0,235.5 L 1071.5,235.0 L 1072.0,234.5 L 1073.0,234.5 L 1073.5,234.0 L 1074.0,233.5 L 1075.0,233.5 L 1076.0,233.5 L 1076.5,233.0 L 1077.0,232.5 L 1078.0,232.5 L 1079.0,232.5 L 1080.0,232.5 L 1081.0,232.5 L 1082.0,232.5 L 1083.0,232.5 L 1084.0,232.5 L 1085.0,232.5 L 1086.0,232.5 L 1087.0,232.5 L 1088.0,232.5 L 1088.5,233.0 L 1089.0,233.5 L 1090.0,233.5 L 1091.0,233.5 L 1091.5,234.0 L 1092.0,234.5 L 1093.0,234.5 L 1093.5,235.0 L 1094.0,235.5 L 1094.5,236.0 L 1095.0,236.5 L 1096.0,236.5 L 1096.5,237.0 L 1097.0,237.5 L 1097.5,238.0 L 1097.5,239.0 L 1098.0,239.5 L 1098.5,240.0 L 1099.0,240.5 L 1099.5,241.0 L 1099.5,242.0 L 1100.0,242.5 L 1100.5,243.0 L 1100.5,244.0 L 1100.5,245.0 L 1101.0,245.5 L 1101.5,246.0 L 1101.5,247.0 L 1101.5,248.0 L 1101.5,249.0 L 1101.5,250.0 L 1101.5,251.0 L 1101.5,252.0 L 1101.5,253.0 L 1101.0,253.5 L 1100.5,254.0 L 1100.5,255.0 L 1100.5,256.0 L 1100.0,256.5 L 1099.5,257.0 L 1099.5,258.0 L 1099.0,258.5 L 1098.5,259.0 L 1098.0,259.5 L 1097.5,260.0 L 1097.0,260.5 L 1096.5,261.0 L 1096.0,261.5 L 1095.5,262.0 L 1095.0,262.5 L 1094.5,263.0 L 1094.0,263.5 L 1093.0,263.5 L 1092.5,264.0 L 1092.0,264.5 L 1091.0,264.5 L 1090.5,265.0 L 1090.0,265.5 L 1089.0,265.5 L 1088.0,265.5 L 1087.0,265.5 L 1086.0,265.5 L 1085.5,266.0 L 1085.0,266.5 Z" fill="black" stroke="none" /><path d="M 979.0,266.5 L 978.0,266.5 L 977.0,266.5 L 976.0,266.5 L 975.0,266.5 L 974.0,266.5 L 973.0,266.5 L 972.0,266.5 L 971.5,266.0 L 971.0,265.5 L 970.0,265.5 L 969.0,265.5 L 968.5,265.0 L 968.0,264.5 L 967.0,264.5 L 966.5,264.0 L 966.0,263.5 L 965.0,263.5 L 964.5,263.0 L 964.0,262.5 L 963.5,262.0 L 963.5,261.0 L 963.0,260.5 L 962.5,260.0 L 962.0,259.5 L 961.5,259.0 L 961.5,258.0 L 961.5,257.0 L 961.5,256.0 L 961.5,255.0 L 961.0,254.5 L 960.5,254.0 L 961.0,253.5 L 961.5,253.0 L 961.0,252.5 L 960.5,252.0 L 960.5,251.0 L 960.5,250.0 L 960.5,249.0 L 960.5,248.0 L 960.5,247.0 L 960.5,246.0 L 960.5,245.0 L 960.5,244.0 L 960.5,243.0 L 960.5,242.0 L 960.5,241.0 L 960.5,240.0 L 960.5,239.0 L 960.5,238.0 L 960.5,237.0 L 960.5,236.0 L 960.5,235.0 L 960.5,234.0 L 961.0,233.5 L 962.0,233.5 L 963.0,233.5 L 964.0,233.5 L 965.0,233.5 L 966.0,233.5 L 967.0,233.5 L 967.5,234.0 L 967.5,235.0 L 967.5,236.0 L 967.5,237.0 L 967.5,238.0 L 967.5,239.0 L 967.5,240.0 L 967.5,241.0 L 967.5,242.0 L 967.5,243.0 L 967.5,244.0 L 967.5,245.0 L 967.5,246.0 L 967.5,247.0 L 967.5,248.0 L 967.5,249.0 L 967.5,250.0 L 967.5,251.0 L 967.5,252.0 L 967.5,253.0 L 967.5,254.0 L 967.5,255.0 L 967.5,256.0 L 968.0,256.5 L 968.5,257.0 L 968.5,258.0 L 969.0,258.5 L 969.5,259.0 L 970.0,259.5 L 971.0,259.5 L 971.5,260.0 L 972.0,260.5 L 973.0,260.5 L 974.0,260.5 L 975.0,260.5 L 976.0,260.5 L 977.0,260.5 L 978.0,260.5 L 979.0,260.5 L 980.0,260.5 L 981.0,260.5 L 982.0,260.5 L 982.5,260.0 L 983.0,259.5 L 984.0,259.5 L 984.5,259.0 L 985.0,258.5 L 986.0,258.5 L 986.5,258.0 L 987.0,257.5 L 987.5,257.0 L 987.5,256.0 L 988.0,255.5 L 988.5,255.0 L 988.5,254.0 L 988.5,253.0 L 988.5,252.0 L 988.5,251.0 L 988.5,250.0 L 988.5,249.0 L 988.5,248.0 L 988.5,247.0 L 988.5,246.0 L 988.5,245.0 L 988.5,244.0 L 988.5,243.0 L 988.5,242.0 L 988.5,241.0 L 988.5,240.0 L 988.5,239.0 L 988.5,238.0 L 988.5,237.0 L 988.5,236.0 L 988.5,235.0 L 988.5,234.0 L 989.0,233.5 L 990.0,233.5 L 991.0,233.5 L 992.0,233.5 L 993.0,233.5 L 994.0,233.5 L 995.0,233.5 L 995.5,234.0 L 995.5,235.0 L 995.5,236.0 L 995.5,237.0 L 995.5,238.0 L 995.5,239.0 L 995.5,240.0 L 995.5,241.0 L 995.5,242.0 L 995.5,243.0 L 995.5,244.0 L 995.5,245.0 L 995.5,246.0 L 995.5,247.0 L 995.5,248.0 L 995.5,249.0 L 995.5,250.0 L 995.5,251.0 L 995.5,252.0 L 995.5,253.0 L 995.5,254.0 L 995.5,255.0 L 995.5,256.0 L 995.5,257.0 L 995.5,258.0 L 995.5,259.0 L 995.5,260.0 L 995.5,261.0 L 995.5,262.0 L 995.5,263.0 L 995.5,264.0 L 995.0,264.5 L 994.5,265.0 L 994.0,265.5 L 993.0,265.5 L 992.0,265.5 L 991.0,265.5 L 990.0,265.5 L 989.0,265.5 L 988.5,265.0 L 988.5,264.0 L 988.5,263.0 L 988.0,262.5 L 987.5,263.0 L 987.0,263.5 L 986.0,263.5 L 985.5,264.0 L 985.0,264.5 L 984.0,264.5 L 983.5,265.0 L 983.0,265.5 L 982.0,265.5 L 981.0,265.5 L 980.0,265.5 L 979.5,266.0 L 979.0,266.5 Z" fill="black" stroke="none" /><path d="M 1027.5,260.0 L 1028.0,259.5 L 1029.0,259.5 L 1029.5,259.0 L 1030.0,258.5 L 1030.5,258.0 L 1031.0,257.5 L 1031.5,257.0 L 1031.5,256.0 L 1032.0,255.5 L 1032.5,255.0 L 1032.5,254.0 L 1033.0,253.5 L 1033.5,253.0 L 1033.5,252.0 L 1033.5,251.0 L 1033.5,250.0 L 1033.5,249.0 L 1033.5,248.0 L 1033.5,247.0 L 1033.5,246.0 L 1033.5,245.0 L 1033.0,244.5 L 1032.5,244.0 L 1032.5,243.0 L 1032.0,242.5 L 1031.5,242.0 L 1031.0,241.5 L 1030.5,241.0 L 1030.0,240.5 L 1029.5,240.0 L 1029.0,239.5 L 1028.5,239.0 L 1028.0,238.5 L 1027.0,238.5 L 1026.0,238.5 L 1025.0,238.5 L 1024.5,238.0 L 1024.0,237.5 L 1023.0,237.5 L 1022.0,237.5 L 1021.0,237.5 L 1020.0,237.5 L 1019.0,237.5 L 1018.0,237.5 L 1017.5,238.0 L 1017.0,238.5 L 1016.0,238.5 L 1015.0,238.5 L 1014.5,239.0 L 1014.0,239.5 L 1013.5,240.0 L 1013.0,240.5 L 1012.0,240.5 L 1011.5,241.0 L 1011.0,241.5 L 1010.5,242.0 L 1010.5,243.0 L 1010.0,243.5 L 1009.5,244.0 L 1009.5,245.0 L 1009.5,246.0 L 1009.5,247.0 L 1009.5,248.0 L 1009.5,249.0 L 1009.5,250.0 L 1009.5,251.0 L 1009.5,252.0 L 1009.5,253.0 L 1009.5,254.0 L 1010.0,254.5 L 1010.5,255.0 L 1010.5,256.0 L 1011.0,256.5 L 1011.5,257.0 L 1012.0,257.5 L 1012.5,258.0 L 1013.0,258.5 L 1013.5,259.0 L 1014.0,259.5 L 1015.0,259.5 L 1015.5,260.0 L 1016.0,260.5 L 1017.0,260.5 L 1018.0,260.5 L 1019.0,260.5 L 1020.0,260.5 L 1021.0,260.5 L 1022.0,260.5 L 1023.0,260.5 L 1024.0,260.5 L 1025.0,260.5 L 1026.0,260.5 L 1027.0,260.5 L 1027.5,260.0 Z" fill="black" stroke="none" /><path d="M 1087.5,260.0 L 1088.0,259.5 L 1089.0,259.5 L 1089.5,259.0 L 1090.0,258.5 L 1091.0,258.5 L 1091.5,258.0 L 1092.0,257.5 L 1092.5,257.0 L 1092.5,256.0 L 1093.0,255.5 L 1093.5,255.0 L 1093.5,254.0 L 1094.0,253.5 L 1094.5,253.0 L 1094.5,252.0 L 1094.5,251.0 L 1094.5,250.0 L 1094.5,249.0 L 1094.5,248.0 L 1094.5,247.0 L 1094.5,246.0 L 1094.5,245.0 L 1094.0,244.5 L 1093.5,244.0 L 1093.5,243.0 L 1093.0,242.5 L 1092.5,242.0 L 1092.0,241.5 L 1091.5,241.0 L 1091.0,240.5 L 1090.5,240.0 L 1090.0,239.5 L 1089.0,239.5 L 1088.5,239.0 L 1088.0,238.5 L 1087.0,238.5 L 1086.0,238.5 L 1085.0,238.5 L 1084.5,238.0 L 1084.0,237.5 L 1083.0,237.5 L 1082.0,237.5 L 1081.0,237.5 L 1080.0,237.5 L 1079.5,238.0 L 1079.0,238.5 L 1078.0,238.5 L 1077.0,238.5 L 1076.0,238.5 L 1075.5,239.0 L 1075.0,239.5 L 1074.0,239.5 L 1073.5,240.0 L 1073.0,240.5 L 1072.5,241.0 L 1072.0,241.5 L 1071.5,242.0 L 1071.0,242.5 L 1070.5,243.0 L 1070.5,244.0 L 1070.5,245.0 L 1070.0,245.5 L 1069.5,246.0 L 1069.5,247.0 L 1069.5,248.0 L 1069.5,249.0 L 1069.5,250.0 L 1069.5,251.0 L 1069.5,252.0 L 1070.0,252.5 L 1070.5,253.0 L 1070.5,254.0 L 1070.5,255.0 L 1071.0,255.5 L 1071.5,256.0 L 1072.0,256.5 L 1072.5,257.0 L 1072.5,258.0 L 1073.0,258.5 L 1074.0,258.5 L 1074.5,259.0 L 1075.0,259.5 L 1076.0,259.5 L 1076.5,260.0 L 1077.0,260.5 L 1078.0,260.5 L 1079.0,260.5 L 1080.0,260.5 L 1081.0,260.5 L 1082.0,260.5 L 1083.0,260.5 L 1084.0,260.5 L 1085.0,260.5 L 1086.0,260.5 L 1087.0,260.5 L 1087.5,260.0 Z" fill="black" stroke="none" /><path d="M 636.0,282.5 L 635.0,282.5 L 634.0,282.5 L 633.0,282.5 L 632.0,282.5 L 631.0,282.5 L 630.0,282.5 L 629.0,282.5 L 628.0,282.5 L 627.0,282.5 L 626.0,282.5 L 625.0,282.5 L 624.0,282.5 L 623.0,282.5 L 622.0,282.5 L 621.0,282.5 L 620.0,282.5 L 619.0,282.5 L 618.0,282.5 L 617.0,282.5 L 616.0,282.5 L 615.0,282.5 L 614.0,282.5 L 613.0,282.5 L 612.0,282.5 L 611.0,282.5 L 610.0,282.5 L 609.0,282.5 L 608.0,282.5 L 607.0,282.5 L 606.0,282.5 L 605.0,282.5 L 604.0,282.5 L 603.0,282.5 L 602.0,282.5 L 601.0,282.5 L 600.0,282.5 L 599.0,282.5 L 598.0,282.5 L 597.0,282.5 L 596.0,282.5 L 595.5,282.0 L 595.5,281.0 L 595.5,280.0 L 595.5,279.0 L 595.5,278.0 L 595.5,277.0 L 595.5,276.0 L 595.5,275.0 L 595.5,274.0 L 595.5,273.0 L 595.5,272.0 L 595.5,271.0 L 595.5,270.0 L 595.5,269.0 L 595.5,268.0 L 595.5,267.0 L 595.5,266.0 L 595.5,265.0 L 595.5,264.0 L 595.5,263.0 L 595.5,262.0 L 595.5,261.0 L 595.5,260.0 L 595.5,259.0 L 595.5,258.0 L 595.5,257.0 L 595.5,256.0 L 595.5,255.0 L 595.5,254.0 L 595.5,253.0 L 595.5,252.0 L 595.5,251.0 L 595.5,250.0 L 595.5,249.0 L 595.5,248.0 L 595.5,247.0 L 595.5,246.0 L 595.5,245.0 L 595.5,244.0 L 595.5,243.0 L 595.5,242.0 L 596.0,241.5 L 596.5,242.0 L 597.0,242.5 L 597.5,243.0 L 598.0,243.5 L 598.5,244.0 L 599.0,244.5 L 599.5,245.0 L 600.0,245.5 L 600.5,246.0 L 601.0,246.5 L 602.0,246.5 L 602.5,247.0 L 603.0,247.5 L 603.5,248.0 L 604.0,248.5 L 604.5,249.0 L 605.0,249.5 L 605.5,250.0 L 606.0,250.5 L 606.5,251.0 L 607.0,251.5 L 607.5,252.0 L 608.0,252.5 L 608.5,253.0 L 609.0,253.5 L 609.5,254.0 L 610.0,254.5 L 610.5,255.0 L 611.0,255.5 L 611.5,256.0 L 612.0,256.5 L 612.5,257.0 L 613.0,257.5 L 613.5,258.0 L 613.5,259.0 L 614.0,259.5 L 614.5,260.0 L 615.0,260.5 L 616.0,260.5 L 616.5,261.0 L 617.0,261.5 L 617.5,262.0 L 618.0,262.5 L 618.5,263.0 L 619.0,263.5 L 619.5,264.0 L 620.0,264.5 L 620.5,265.0 L 621.0,265.5 L 621.5,266.0 L 622.0,266.5 L 622.5,267.0 L 623.0,267.5 L 623.5,268.0 L 624.0,268.5 L 624.5,269.0 L 625.0,269.5 L 625.5,270.0 L 626.0,270.5 L 626.5,271.0 L 627.0,271.5 L 627.5,272.0 L 628.0,272.5 L 628.5,273.0 L 629.0,273.5 L 629.5,274.0 L 629.5,275.0 L 630.0,275.5 L 630.5,276.0 L 631.0,276.5 L 631.5,277.0 L 632.0,277.5 L 632.5,278.0 L 633.0,278.5 L 633.5,279.0 L 634.0,279.5 L 634.5,280.0 L 635.0,280.5 L 636.0,280.5 L 636.5,281.0 L 636.5,282.0 L 636.0,282.5 Z" fill="black" stroke="none" /></svg>