<?xml version="1.0" encoding="utf-8" ?>
<svg baseProfile="full" height="341" version="1.1" width="512" xmlns="http://www.w3.org/2000/svg" xmlns:ev="http://www.w3.org/2001/xml-events" xmlns:xlink="http://www.w3.org/1999/xlink"><defs /><path d="M 511.0,282.5 L 510.0,282.5 L 509.0,282.5 L 508.0,282.5 L 507.0,282.5 L 506.0,282.5 L 505.0,282.5 L 504.0,282.5 L 503.0,282.5 L 502.0,282.5 L 501.0,282.5 L 500.0,282.5 L 499.0,282.5 L 498.0,282.5 L 497.0,282.5 L 496.0,282.5 L 495.0,282.5 L 494.0,282.5 L 493.0,282.5 L 492.0,282.5 L 491.0,282.5 L 490.0,282.5 L 489.0,282.5 L 488.0,282.5 L 487.0,282.5 L 486.0,282.5 L 485.0,282.5 L 484.0,282.5 L 483.0,282.5 L 482.5,282.0 L 482.5,281.0 L 482.5,280.0 L 482.5,279.0 L 482.5,278.0 L 482.5,277.0 L 482.5,276.0 L 482.5,275.0 L 482.5,274.0 L 482.5,273.0 L 482.5,272.0 L 482.5,271.0 L 482.5,270.0 L 482.5,269.0 L 482.5,268.0 L 482.5,267.0 L 482.5,266.0 L 482.5,265.0 L 482.5,264.0 L 482.5,263.0 L 482.5,262.0 L 482.5,261.0 L 482.5,260.0 L 482.5,259.0 L 482.5,258.0 L 482.5,257.0 L 482.5,256.0 L 482.5,255.0 L 482.5,254.0 L 482.5,253.0 L 482.5,252.0 L 482.5,251.0 L 482.5,250.0 L 482.5,249.0 L 482.5,248.0 L 482.5,247.0 L 482.5,246.0 L 482.5,245.0 L 482.5,244.0 L 482.5,243.0 L 482.5,242.0 L 482.5,241.0 L 482.5,240.0 L 482.5,239.0 L 482.5,238.0 L 482.5,237.0 L 482.5,236.0 L 482.5,235.0 L 482.5,234.0 L 482.5,233.0 L 482.5,232.0 L 482.5,231.0 L 482.5,230.0 L 482.5,229.0 L 482.5,228.0 L 482.5,227.0 L 482.5,226.0 L 482.5,225.0 L 482.5,224.0 L 482.5,223.0 L 482.5,222.0 L 482.5,221.0 L 482.5,220.0 L 482.5,219.0 L 482.5,218.0 L 482.5,217.0 L 482.5,216.0 L 482.5,215.0 L 482.5,214.0 L 482.5,213.0 L 482.5,212.0 L 482.5,211.0 L 482.5,210.0 L 482.5,209.0 L 482.5,208.0 L 482.5,207.0 L 482.5,206.0 L 482.5,205.0 L 482.5,204.0 L 482.5,203.0 L 482.5,202.0 L 482.5,201.0 L 482.5,200.0 L 482.5,199.0 L 482.5,198.0 L 482.5,197.0 L 482.5,196.0 L 482.5,195.0 L 482.5,194.0 L 482.5,193.0 L 482.5,192.0 L 482.5,191.0 L 482.5,190.0 L 482.5,189.0 L 482.5,188.0 L 482.5,187.0 L 482.5,186.0 L 482.5,185.0 L 482.5,184.0 L 482.5,183.0 L 482.5,182.0 L 482.5,181.0 L 483.0,180.5 L 483.5,180.0 L 484.0,179.5 L 485.0,179.5 L 486.0,179.5 L 487.0,179.5 L 488.0,179.5 L 488.5,180.0 L 489.0,180.5 L 489.5,181.0 L 490.0,181.5 L 491.0,181.5 L 491.5,182.0 L 492.0,182.5 L 492.5,183.0 L 493.0,183.5 L 494.0,183.5 L 494.5,184.0 L 495.0,184.5 L 495.5,185.0 L 496.0,185.5 L 497.0,185.5 L 497.5,186.0 L 498.0,186.5 L 498.5,187.0 L 499.0,187.5 L 500.0,187.5 L 500.5,188.0 L 501.0,188.5 L 501.5,189.0 L 502.0,189.5 L 503.0,189.5 L 503.5,190.0 L 504.0,190.5 L 504.5,191.0 L 505.0,191.5 L 505.5,192.0 L 506.0,192.5 L 507.0,192.5 L 507.5,193.0 L 508.0,193.5 L 508.5,194.0 L 509.0,194.5 L 510.0,194.5 L 510.5,195.0 L 511.0,195.5 Z" fill="white" stroke="none" /></svg>